<?xml version="1.0" encoding="utf-8"?>
<!-- Generator: Adobe Illustrator 27.3.1, SVG Export Plug-In . SVG Version: 6.00 Build 0)  -->
<svg version="1.1" id="Camada_1" xmlns="http://www.w3.org/2000/svg" xmlns:xlink="http://www.w3.org/1999/xlink" x="0px" y="0px"
	 viewBox="0 0 240.9 155.9" style="enable-background:new 0 0 240.9 155.9;" xml:space="preserve">
<style type="text/css">
	.st0{fill:#FDD28C;}
	.st1{fill:#FFFFFF;}
	.st2{fill:#D6A355;}
	.st3{fill:#F4EDED;}
	.st4{fill:#FBB917;}
	.st5{fill:#6394CE;}
	.st6{fill:#4783C4;}
	.st7{fill:#1D9AAA;}
	.st8{fill:#156A74;}
	.st9{fill:#010202;}
	.st10{fill:#CBC6C6;}
	.st11{fill:#D8D6D6;}
	.st12{fill:#0F5058;}
	.st13{fill:#135C65;}
	.st14{fill:#212B54;}
	.st15{fill:#D3DC60;}
	.st16{fill:#B2B234;}
	.st17{fill:#033439;}
	.st18{fill:#416C8B;}
	.st19{fill:#1B9AAA;}
</style>
<g>
	<path class="st0" d="M108.7,48.3c-0.6,4.5-4,8.4-8.6,9.5c-6.1,1.4-12.2-2.3-13.7-8.5c-0.7-3-0.1-6,1.3-8.5c1.6-2.6,4.1-4.5,7.1-5.2
		c6.1-1.4,12.2,2.3,13.7,8.5C108.8,45.6,108.9,47,108.7,48.3L108.7,48.3z"/>
	<path class="st1" d="M105,48.5c-0.4-1.5-1.9-2.5-3.4-2.1s-2.5,1.9-2.1,3.4c0.1,0.4,0.2,0.7,0.4,1c0.6,0.9,1.8,1.4,3,1.1
		c1.1-0.3,1.9-1.1,2.1-2.1C105.1,49.4,105.1,48.9,105,48.5L105,48.5z M102.5,50.1c-0.5,0.1-1-0.2-1.1-0.7v-0.1
		c-0.1-0.5,0.2-0.9,0.7-1c0.3-0.1,0.7,0,0.9,0.3c0.4,0.4,0.4,1,0,1.3C102.8,49.9,102.7,50,102.5,50.1z M100.7,41.1
		c-0.1-0.5-0.6-0.8-1.1-0.7c-0.3,0.1-0.5,0.3-0.6,0.5l-2.8,6.3l-2,4.5c-0.1,0.2-0.1,0.4-0.1,0.6c0.1,0.5,0.6,0.8,1.1,0.7
		c0.3-0.1,0.5-0.3,0.7-0.5l1.4-3.1l3.4-7.7C100.7,41.5,100.7,41.3,100.7,41.1L100.7,41.1z M95.3,43.6c-0.3-1.5-1.9-2.5-3.4-2.1l0,0
		c-1.5,0.4-2.5,1.9-2.1,3.4c0.1,0.3,0.2,0.6,0.4,0.8c0.6,1,1.8,1.6,3,1.3c0.6-0.1,1.2-0.5,1.5-1C95.3,45.4,95.5,44.5,95.3,43.6
		L95.3,43.6z M92.3,43.4c0.5-0.1,1,0.2,1.1,0.7s-0.2,1-0.7,1.1s-1-0.2-1.1-0.7C91.5,44,91.8,43.5,92.3,43.4z"/>
	<path class="st2" d="M108.7,48.3c-0.6,4.5-4,8.4-8.6,9.5c-6.1,1.4-12.2-2.3-13.7-8.5c-0.7-3-0.1-6,1.3-8.5c0.1,1.2,0.4,2.4,1,3.5
		c0.3,0.6,0.8,1.1,1.4,1.5c0.6,1,1.8,1.6,3,1.3c0.6-0.1,1.2-0.5,1.5-1c0.6,0.2,1.1,0.7,1.4,1.2l-2,4.5c-0.1,0.2-0.1,0.4-0.1,0.6
		c0.1,0.5,0.6,0.8,1.1,0.7c0.3-0.1,0.5-0.3,0.7-0.5l1.4-3.1c0.1,0.2,0.2,0.4,0.4,0.6c0.6,0.7,1.5,1.1,2.3,0.8c0.6,0.9,1.8,1.4,3,1.1
		c1.1-0.3,1.9-1.1,2.1-2.1c1,0.3,2.3-0.1,3.1-0.9C108.3,48.8,108.5,48.5,108.7,48.3L108.7,48.3z"/>
	<path class="st3" d="M93.2,47.1c-1.2,0.3-2.4-0.2-3-1.3c0.6,0.4,1.3,0.6,2,0.5s1.5-0.4,2.2-0.3c0.1,0,0.2,0,0.3,0.1
		C94.3,46.6,93.8,46.9,93.2,47.1z M96.4,47.7c0.3,0.6,0.6,1.2,0.9,1.8l-1.4,3.1c-0.1,0.3-0.4,0.5-0.7,0.5c-0.5,0.1-1-0.2-1.1-0.7
		c0-0.2,0-0.4,0.1-0.6l2-4.5C96.2,47.4,96.3,47.5,96.4,47.7L96.4,47.7z"/>
	<path class="st4" d="M102.5,50.1c-0.5,0.1-1-0.2-1.1-0.7v-0.1c0.3-0.4,0.8-0.9,1.4-0.8c0.1,0,0.2,0,0.2,0c0.4,0.4,0.4,1,0,1.3
		C102.8,49.9,102.7,50,102.5,50.1z"/>
	<path class="st3" d="M105,49.8c-0.3,1-1,1.8-2.1,2.1c-1.2,0.3-2.3-0.2-3-1.1h0.1c0.5-0.3,0.9-0.8,1.2-1.3l0.1-0.1v0.1
		c0.1,0.5,0.6,0.8,1.1,0.7s0.8-0.6,0.7-1.1c0-0.2-0.1-0.3-0.2-0.4c0.5,0.1,0.9,0.7,1.4,1C104.6,49.6,104.8,49.8,105,49.8L105,49.8z"
		/>
	<path class="st5" d="M92.1,55.3c-0.8,6.2-6.5,10.6-12.7,9.9c-6.2-0.8-10.6-6.5-9.9-12.7c0.3-2.2,1.2-4.2,2.5-5.8
		c2.5-3,6.3-4.6,10.2-4.1c4.1,0.5,7.4,3.1,9,6.6C92,51.1,92.4,53.2,92.1,55.3z"/>
	<path class="st1" d="M84.9,55c-1.6-0.2-3,0.9-3.2,2.5s0.9,3,2.5,3.2s3-0.9,3.2-2.5C87.6,56.7,86.5,55.2,84.9,55z M84.4,58.8
		c-0.5-0.1-0.9-0.5-0.8-1.1c0.1-0.5,0.5-0.9,1.1-0.8c0.5,0.1,0.9,0.5,0.8,1.1C85.4,58.5,84.9,58.9,84.4,58.8z M85.6,49
		c-0.2-0.1-0.3-0.2-0.5-0.3c-0.3,0-0.6,0.1-0.8,0.3l-4.4,4.5l-3.8,4c-0.1,0.2-0.2,0.4-0.3,0.5c-0.1,0.5,0.3,1,0.8,1.1
		c0.3,0,0.6-0.1,0.8-0.3l4-4.1l4.2-4.4c0.1-0.2,0.2-0.4,0.3-0.5C85.9,49.5,85.8,49.2,85.6,49z M77.5,47.1c-1.6-0.2-3,0.9-3.2,2.5
		c-0.1,1.1,0.4,2.1,1.2,2.7c0.4,0.2,0.8,0.4,1.2,0.5c0.8,0.1,1.5-0.1,2.1-0.6c1.2-0.9,1.5-2.7,0.5-4C78.9,47.6,78.2,47.2,77.5,47.1
		L77.5,47.1z M77.2,49c0.5,0.1,0.9,0.5,0.8,1.1c-0.1,0.5-0.5,0.9-1.1,0.8c-0.5-0.1-0.9-0.5-0.8-1.1C76.2,49.3,76.7,48.9,77.2,49z"/>
	<path class="st6" d="M91.2,49.2c-0.1,0.7-0.3,1.4-0.5,2c-0.4,1-1,1.9-2,2.4c-0.9,0.5-2.1,0.6-3,0c-0.4-0.3-0.7-0.6-1.1-0.7
		c-0.6-0.1-1.2,0.3-1.7,0.8c-0.4,0.4-0.9,0.9-1.5,0.9l-4,4.1c-0.2,0.2-0.5,0.3-0.8,0.3c-0.2,0-0.4-0.1-0.5-0.3
		c-0.2-0.2-0.3-0.5-0.3-0.8c0-0.2,0.1-0.4,0.3-0.5l3.8-4l-0.1-0.1c-0.3-0.5-0.5-1-0.9-1.3c-0.6,0.4-1.3,0.7-2.1,0.6
		c-0.5-0.1-0.9-0.2-1.2-0.5c-1.2-0.1-2.3-1.1-2.8-2.2c-0.5-1-0.6-2.2-0.7-3.3c-1.4,1.7-2.2,3.7-2.5,5.8c-0.8,6.2,3.6,11.9,9.9,12.7
		c6.2,0.8,11.9-3.6,12.7-9.9C92.4,53.2,92,51.1,91.2,49.2L91.2,49.2z M87.4,58.2c-0.2,1.5-1.6,2.6-3.2,2.5c-1.6-0.2-2.7-1.6-2.5-3.2
		c0.2-1.6,1.6-2.7,3.2-2.5S87.6,56.7,87.4,58.2z"/>
	<path class="st3" d="M76.8,52.7c-0.5-0.1-0.9-0.2-1.2-0.5c0.2,0,0.4,0,0.6,0c0.8-0.1,1.5-0.5,2.3-0.3c0.2,0,0.3,0.1,0.4,0.2
		C78.3,52.6,77.5,52.8,76.8,52.7L76.8,52.7z M81.3,54.7L81.3,54.7l-3.9,4.1c-0.2,0.2-0.5,0.3-0.8,0.3c-0.2,0-0.4-0.1-0.5-0.3
		c-0.2-0.2-0.3-0.5-0.3-0.8c0-0.2,0.1-0.4,0.3-0.5l3.8-4C80.2,54.1,80.7,54.7,81.3,54.7L81.3,54.7z"/>
	<path class="st6" d="M85.5,58c-0.1,0.5-0.5,0.9-1.1,0.8c-0.5-0.1-0.9-0.5-0.8-1.1c0.1-0.5,0.5-0.9,1.1-0.8
		C85.2,57,85.6,57.5,85.5,58z"/>
	<path class="st3" d="M84.9,55c-1.6-0.2-3,0.9-3.2,2.5s0.9,3,2.5,3.2s3-0.9,3.2-2.5C87.6,56.7,86.5,55.2,84.9,55z M84.4,58.8
		c-0.5-0.1-0.9-0.5-0.8-1.1c0.1-0.5,0.5-0.9,1.1-0.8c0.5,0.1,0.9,0.5,0.8,1.1C85.4,58.5,84.9,58.9,84.4,58.8z"/>
	<path class="st7" d="M108.7,58.3l-3.3,21L102.7,96c-0.1,0.6-0.6,1.1-1.3,1.1H54.1l-0.3-1.5l-0.1-0.4l0,0L48,58.3H108.7z"/>
	<path class="st8" d="M105.3,79.3L102.7,96c-0.1,0.6-0.6,1.1-1.3,1.1H54.1l-0.3-1.5c0.9,0.9,2.7,0.9,4,0.4c1.5-0.5,2.8-1.5,4.4-1.5
		c1.9,0,3.6,1.4,5.5,1.3c1.8-0.1,3.3-1.6,5.1-1.9c3.1-0.7,6.1,2.1,9.2,1.6c2-0.3,3.6-1.9,5.6-2.2c1.3-0.2,2.5,0.1,3.8,0.2
		s2.6,0.1,3.6-0.7c1.7-1.4,1.5-4.3,3.3-5.5c0.9-0.6,2.1-0.6,2.9-1.4c0.6-0.6,0.8-1.6,1.1-2.4C103,81.8,104,80.4,105.3,79.3
		L105.3,79.3z"/>
	<path class="st9" d="M101.4,97.5H54.1c-0.2,0-0.3-0.1-0.4-0.3l-0.3-1.9v-0.1l-5.9-36.8c0-0.1,0-0.2,0.1-0.3s0.2-0.1,0.3-0.1h60.7
		c0.1,0,0.2,0,0.3,0.1c0.1,0.1,0.1,0.2,0.1,0.3l-1.9,12c0,0.2-0.2,0.3-0.4,0.3c-0.2,0-0.3-0.2-0.3-0.4l1.8-11.6H48.4l5.8,36.4v0.1
		l0.3,1.5h47c0.5,0,0.9-0.3,0.9-0.8l1.1-6.9c0-0.2,0.2-0.3,0.4-0.3c0.2,0,0.3,0.2,0.3,0.4L103,96C102.9,96.9,102.2,97.5,101.4,97.5z
		"/>
	<path class="st10" d="M103.5,103H57.1c-1.1,0-2,1-1.8,2.1l0.3,1.9c0.2,1.1,1.2,2,2.3,2h42.7c1.6,0,3,1.1,3.1,2.7
		c0.2,1.8-1.2,3.3-2.9,3.3H53.4c-1.5,0-2.7-1.1-2.9-2.5l-8.7-55.6c-0.1-0.9-0.9-1.5-1.7-1.5H24.7c-1.6,0-3-1.1-3.1-2.7
		c-0.2-1.8,1.2-3.3,2.9-3.3h19.6c1.5,0,2.7,1.1,2.9,2.5l6.7,43c0.2,1.2,1.2,2.1,2.5,2.1h47.4c0.2,0,0.5,0,0.7,0.1
		c1.5,0.3,2.5,1.8,2.2,3.5C106.2,102,104.9,103,103.5,103L103.5,103z"/>
	<path class="st11" d="M106.6,100.1c0,1.6-1.3,3-3,3H63.9c0.4-1.2,1.8-2.1,3.1-2.3c1.4-0.2,2.9,0.1,4.3,0.4s2.9,0.6,4.3,0.3
		c1.8-0.4,3.4-1.7,5.2-1.5c1.9,0.2,3.5,2.1,5.5,1.9c1.7-0.1,2.9-1.9,4.6-2.3s3.3,0.5,5,1c2.2,0.5,4.7,0,6.6-1.3
		c0.7-0.6,1.4-1.3,1.9-2C105.6,97.5,106.6,98.7,106.6,100.1L106.6,100.1z"/>
	<path class="st9" d="M100.9,115.3H53.4c-1.6,0-3-1.2-3.3-2.8l-8.7-55.6c-0.1-0.7-0.7-1.2-1.4-1.2H24.7c-1.8,0-3.3-1.3-3.5-3
		c-0.1-0.9,0.2-1.9,0.8-2.6c0.6-0.7,1.5-1.1,2.5-1.1h19.6c1.6,0,3,1.2,3.3,2.8l6.7,43c0.2,1.1,1.1,1.8,2.1,1.8h47.4
		c1.6,0,2.9,1.1,3.2,2.6c0,0.2-0.1,0.4-0.3,0.4c-0.2,0-0.4-0.1-0.4-0.3c-0.2-1-1-1.8-2-2c-0.2,0-0.4-0.1-0.6-0.1H56.2
		c-1.4,0-2.6-1-2.8-2.4l-6.7-43c-0.2-1.3-1.3-2.2-2.6-2.2H24.5c-0.7,0-1.4,0.3-1.9,0.9c-0.5,0.5-0.7,1.3-0.7,2
		C22,54,23.2,55,24.7,55h15.4c1.1,0,2,0.8,2.1,1.8l8.7,55.6c0.2,1.3,1.3,2.2,2.6,2.2h47.4c0.7,0,1.4-0.3,1.9-0.9
		c0.5-0.5,0.7-1.3,0.7-2c-0.1-1.3-1.3-2.3-2.8-2.3H58c-0.2,0-0.4-0.2-0.4-0.4s0.2-0.4,0.4-0.4h42.7c1.8,0,3.3,1.3,3.5,3
		c0.1,0.9-0.2,1.9-0.8,2.6C102.7,114.9,101.8,115.3,100.9,115.3L100.9,115.3z"/>
	<path class="st1" d="M57.9,90.8l-4.1-25.5c-0.2-1,0.5-2,1.6-2.2c0.1,0,0.2,0,0.3,0h45.1c1.2,0,2.1,1.1,1.9,2.2l-4.1,25.5
		c-0.1,0.9-0.9,1.6-1.9,1.6h-37C58.9,92.4,58.1,91.7,57.9,90.8z"/>
	<path class="st12" d="M36.2,52.5c0,1.1-0.5,2.1-1.2,2.9c-0.7,0.7-1.8,1.2-2.9,1.2h-8.3c-1.4,0-2.7-0.7-3.5-1.9
		c-0.4-0.6-0.6-1.4-0.6-2.2c0-1.1,0.5-2.1,1.2-2.9c0.7-0.7,1.8-1.2,2.9-1.2h8.3C34.4,48.4,36.2,50.2,36.2,52.5z"/>
	<path class="st13" d="M36.2,52.5c0,1.1-0.5,2.1-1.2,2.9c-0.7,0.7-1.8,1.2-2.9,1.2h-8.3c-1.4,0-2.7-0.7-3.5-1.9
		c0.4,0.3,1,0.4,1.5,0.4c0.7,0,1.5-0.4,1.9-1c0.3-0.4,0.5-1,1-1.2c0.6-0.3,1.3,0,1.9,0.3s1.3,0.7,1.9,0.4c0.9-0.4,0.9-1.9,1.9-2.3
		c0.8-0.3,1.7,0.5,2.6,0.4c0.7-0.1,1.2-0.7,1.4-1.4c0.1-0.4,0.1-0.8,0-1.2C35.5,49.8,36.2,51.1,36.2,52.5z"/>
	<path class="st9" d="M27.1,56.9h-3.4c-2.5,0-4.5-2-4.5-4.5c0-1.2,0.5-2.3,1.3-3.2c0.8-0.8,2-1.3,3.2-1.3H32c2.4,0,4.4,2,4.5,4.4
		l0,0c0,0.2-0.2,0.4-0.4,0.4s-0.4-0.2-0.4-0.4c0-1.3-0.6-2.4-1.7-3.1c-0.6-0.4-1.3-0.6-2.1-0.6h-8.4c-1,0-1.9,0.4-2.7,1.1
		S20,51.4,20,52.4c0,0.7,0.2,1.4,0.6,2c0.7,1.1,1.9,1.8,3.2,1.8h3.3c0.2,0,0.4,0.2,0.4,0.4C27.5,56.8,27.3,56.9,27.1,56.9L27.1,56.9
		z"/>
	<path class="st12" d="M64.2,92.8c-0.3,0-0.5-0.2-0.5-0.5V65.1c0-0.3,0.2-0.5,0.5-0.5c0.3,0,0.5,0.2,0.5,0.5v27.3
		C64.6,92.6,64.4,92.8,64.2,92.8L64.2,92.8z M78,92.8c-0.3,0-0.5-0.2-0.5-0.5V65.1c0-0.3,0.2-0.5,0.5-0.5s0.5,0.2,0.5,0.5v27.3
		C78.5,92.6,78.3,92.8,78,92.8L78,92.8z M91.8,92.8c-0.3,0-0.5-0.2-0.5-0.5V65.1c0-0.3,0.2-0.5,0.5-0.5s0.5,0.2,0.5,0.5v27.3
		C92.3,92.6,92.1,92.8,91.8,92.8L91.8,92.8z"/>
	<path class="st12" d="M104.2,75.5H51.6c-0.3,0-0.5-0.2-0.5-0.5s0.2-0.5,0.5-0.5h52.6c0.3,0,0.5,0.2,0.5,0.5
		C104.6,75.3,104.4,75.5,104.2,75.5z M100.4,85.7h-45c-0.3,0-0.5-0.2-0.5-0.5s0.2-0.5,0.5-0.5h45c0.3,0,0.5,0.2,0.5,0.5
		S100.6,85.7,100.4,85.7z"/>
	<circle class="st14" cx="62.4" cy="116.7" r="5.3"/>
	<path class="st15" d="M71.7,52.7c-0.1,5.2-3.7,9.7-8.8,10.8c-6.1,1.4-12.2-2.3-13.7-8.5c-0.7-2.9-0.2-5.7,1.1-8.1
		c1.5-2.8,4.2-4.9,7.4-5.6c6.1-1.4,12.2,2.3,13.7,8.5C71.7,50.8,71.8,51.8,71.7,52.7L71.7,52.7z"/>
	<path class="st1" d="M58.2,49.3c-0.4-1.5-1.9-2.5-3.4-2.1s-2.5,1.9-2.1,3.4c0,0.1,0.1,0.3,0.1,0.4c0.5,1.3,1.9,2,3.3,1.7
		c0.5-0.1,0.9-0.3,1.2-0.6C58.1,51.4,58.5,50.4,58.2,49.3z M55.7,50.9c-0.3,0.1-0.7,0-0.9-0.3c-0.1-0.1-0.2-0.3-0.2-0.4
		c-0.1-0.5,0.2-1,0.7-1.1s1,0.2,1.1,0.7c0.1,0.3,0,0.5-0.1,0.7C56.2,50.7,56,50.9,55.7,50.9z M63.7,46.9c-0.1-0.3-0.3-0.5-0.5-0.7
		c-0.2-0.1-0.4-0.1-0.6-0.1c-0.3,0.1-0.5,0.3-0.7,0.5l-3,6.9l-1.7,4c-0.1,0.2-0.1,0.4-0.1,0.6c0.1,0.3,0.3,0.5,0.5,0.6
		s0.4,0.1,0.6,0.1c0.3-0.1,0.5-0.3,0.7-0.5l2.5-5.7l2.2-5.1C63.7,47.2,63.7,47.1,63.7,46.9L63.7,46.9z M68,54.2
		c-0.1-0.4-0.3-0.8-0.6-1.2c-0.7-0.8-1.7-1.2-2.8-1c-0.7,0.2-1.3,0.6-1.7,1.2c-0.4,0.6-0.6,1.4-0.4,2.3c0.4,1.5,1.9,2.5,3.4,2.1l0,0
		C67.4,57.2,68.4,55.7,68,54.2L68,54.2z M65.5,55.8c-0.5,0.1-1-0.2-1.1-0.7c-0.1-0.3,0-0.7,0.3-0.9c0.1-0.1,0.3-0.2,0.5-0.3
		c0,0,0,0,0.1,0c0.5-0.1,0.9,0.2,1.1,0.7C66.3,55.2,66,55.7,65.5,55.8z"/>
	<path class="st16" d="M71.7,52.7c-0.1,5.2-3.7,9.7-8.8,10.8c-6.1,1.4-12.2-2.3-13.7-8.5c-0.7-2.9-0.2-5.7,1.1-8.1
		c0,0.5,0,1.1,0.1,1.6c0.3,1.1,1.2,2.2,2.3,2.4c0.5,1.3,1.9,2,3.3,1.7c0.5-0.1,0.9-0.3,1.2-0.6c0.2,0.6,0.4,1.1,0.9,1.3
		c0.2,0.1,0.4,0.1,0.6,0.1l-1.7,4c-0.1,0.2-0.1,0.4-0.1,0.6c0.1,0.3,0.3,0.5,0.5,0.6s0.4,0.1,0.6,0.1c0.3-0.1,0.5-0.3,0.7-0.5
		l2.5-5.7c0.1,0,0.3,0,0.4,0c0.4,0.1,0.8,0.4,1.1,0.7c-0.4,0.6-0.6,1.4-0.4,2.3c0.4,1.5,1.9,2.5,3.4,2.1l0,0
		c1.5-0.4,2.5-1.9,2.1-3.4l0,0c-0.1-0.4-0.3-0.8-0.6-1.2c0.5,0.2,1,0.6,1.5,0.8c0.9,0.3,1.9-0.2,2.6-0.9
		C71.6,52.9,71.7,52.8,71.7,52.7L71.7,52.7z"/>
	<path class="st3" d="M57.4,52.1c-0.3,0.3-0.8,0.5-1.2,0.6c-1.4,0.3-2.8-0.4-3.3-1.7c0.3,0.1,0.6,0.1,0.9,0c0.4-0.1,0.7-0.2,1.1-0.4
		c0.2,0.2,0.6,0.3,0.9,0.3c0.3-0.1,0.5-0.2,0.6-0.4h0.1C57,50.8,57.2,51.5,57.4,52.1z M58.9,53.5c0.8-0.1,1.6-0.9,2.5-1l-2.5,5.7
		c-0.1,0.3-0.4,0.5-0.7,0.5c-0.2,0-0.4,0-0.6-0.1c-0.3-0.1-0.5-0.4-0.5-0.6c0-0.2,0-0.4,0.1-0.6L58.9,53.5z M65.9,57.6
		c-1.5,0.4-3.1-0.6-3.4-2.1c-0.2-0.8,0-1.6,0.4-2.3c0.5,0.5,1,1.1,1.6,1l0,0c-0.2,0.2-0.3,0.5-0.3,0.9c0.1,0.5,0.6,0.8,1.1,0.7
		s0.8-0.6,0.7-1.1c-0.1-0.5-0.6-0.8-1.1-0.7c0.4-0.3,0.7-0.9,1.2-1c0.4-0.1,0.7,0,1.1,0.1c1,1.2,0.9,3-0.3,4
		C66.7,57.3,66.3,57.5,65.9,57.6z"/>
	<circle class="st1" cx="62.4" cy="116.7" r="2.9"/>
	<circle class="st14" cx="93.3" cy="116.7" r="5.3"/>
	<circle class="st1" cx="93.3" cy="116.7" r="2.9"/>
	<path class="st12" d="M111.4,57.4v6.4c0,0.9-0.7,1.6-1.6,1.6H46.9c-0.9,0-1.6-0.7-1.6-1.6v-6.4c0-0.9,0.7-1.6,1.6-1.6h62.9
		c0.7,0,1.2,0.4,1.5,1C111.3,56.9,111.4,57.1,111.4,57.4z"/>
	<path class="st17" d="M58.6,55.7c0,0.3-0.1,0.6-0.3,0.8c-0.5,0.7-1.5,0.8-2.4,0.7c-0.8,0-1.8-0.1-2.5,0.3c-0.4,0.2-0.8,0.7-1.2,0.8
		c-1,0.3-2.1-0.7-3-0.2c-0.5,0.3-0.7,0.9-1,1.3c-0.4,0.6-1.2,1-2,0.9c-0.4,0-0.7-0.1-1-0.3v-2.7c0-0.9,0.7-1.6,1.6-1.6H58.6
		L58.6,55.7z M47.8,63.6c-0.1,0-0.3,0-0.4,0c-0.8,0-1.7-0.3-2.4-0.8c-0.2-0.1-0.2-0.3-0.1-0.5s0.3-0.2,0.5-0.1
		c0.6,0.4,1.3,0.6,2,0.7c1.4,0.1,2.8-0.4,3.7-1.5c0.2-0.2,0.3-0.4,0.5-0.6c0.5-0.6,0.9-1.1,1.7-1.4c0.9-0.3,1.8,0,2.6,0.2
		c0.8,0.3,1.6,0.5,2.3,0.1c0.4-0.2,0.6-0.5,0.9-0.9c0.4-0.5,0.7-0.9,1.3-1.2c0.8-0.3,1.5-0.1,2.3,0.2c0.3,0.1,0.7,0.2,1,0.3
		c1,0.2,2.1-0.3,2.7-1.2c0.3-0.4,0.4-0.9,0.5-1.3c0-0.2,0.2-0.3,0.4-0.3s0.3,0.2,0.3,0.4c0,0.6-0.3,1.2-0.6,1.7
		c-0.7,1.1-2.1,1.7-3.4,1.5c-0.4-0.1-0.7-0.2-1.1-0.3c-0.6-0.2-1.2-0.4-1.8-0.2c-0.4,0.2-0.7,0.5-1,0.9s-0.7,0.8-1.2,1.1
		c-0.9,0.5-1.9,0.2-2.8-0.1c-0.8-0.2-1.5-0.5-2.2-0.2c-0.5,0.2-0.9,0.7-1.3,1.2c-0.2,0.2-0.3,0.4-0.5,0.6
		C50.7,63,49.3,63.6,47.8,63.6L47.8,63.6z M111.4,57.3v6.4c0,0.9-0.7,1.6-1.6,1.6H62.1c0.7-1.1,2.3-1.6,3.6-1.5
		c1.6,0.1,3.1,0.6,4.7,0.4c2.7-0.3,4.9-2.7,7.6-2.9c2.6-0.2,5.1,1.7,7.8,1.4c2.3-0.3,4.2-2.4,6.5-2.6c2.3-0.1,4.6,1.6,6.7,0.8
		c1.3-0.5,2.1-1.8,3.4-2.3s2.7-0.1,4.1-0.1c1.7,0,3.5-0.8,4.7-2C111.3,56.9,111.4,57.1,111.4,57.3L111.4,57.3z"/>
	<path class="st9" d="M94.7,65.8H46.9c-1.1,0-2-0.9-2-2v-6.4c0-1.1,0.9-2,2-2h62.9c0.8,0,1.5,0.5,1.8,1.2c0.1,0.2,0.2,0.5,0.2,0.8
		c0,0.2-0.2,0.4-0.4,0.4s-0.4-0.2-0.4-0.4s0-0.4-0.1-0.5c-0.2-0.5-0.7-0.8-1.2-0.8H46.9c-0.7,0-1.3,0.6-1.3,1.3v6.4
		c0,0.7,0.6,1.3,1.3,1.3h47.8c0.2,0,0.4,0.2,0.4,0.4C95.1,65.6,94.9,65.8,94.7,65.8L94.7,65.8z M81.9,41.1c-0.1,0-0.2,0-0.2-0.1
		c-1.4-1.2-3.1-2-4.9-2.3c-0.2,0-0.3-0.2-0.3-0.4s0.2-0.3,0.4-0.3c1.9,0.4,3.7,1.3,5.2,2.5c0.1,0.1,0.2,0.4,0,0.5
		C82.1,41,82,41.1,81.9,41.1z M82.5,38.8c-0.1,0-0.2,0-0.2-0.1c-1-0.8-1.8-1.8-2.2-3c-0.1-0.2,0-0.4,0.2-0.5s0.4,0,0.5,0.2
		c0.4,1.1,1.1,2,2,2.8c0.1,0.1,0.2,0.4,0,0.5C82.7,38.7,82.6,38.8,82.5,38.8z M84.8,38.5c-0.1,0-0.2-0.1-0.3-0.2
		c-0.8-1.2-1.2-2.6-1.2-4.1c0-0.2,0.2-0.4,0.4-0.3c0.2,0,0.4,0.2,0.3,0.4c0,1.3,0.3,2.6,1,3.6c0.1,0.2,0.1,0.4-0.1,0.5
		C84.9,38.4,84.8,38.5,84.8,38.5z"/>
	<path class="st1" d="M91.5,61c-0.7,0-1.2,0.3-1.7,0.8c-0.4,0.5-0.7,1.2-0.7,2c0-1.5-1.1-2.8-2.4-2.8c0.7,0,1.2-0.3,1.7-0.8
		c0.4-0.5,0.7-1.2,0.7-2c0,0.8,0.3,1.5,0.7,2C90.2,60.7,90.8,61,91.5,61z M93.6,100.1c-0.5,0-0.9,0.2-1.3,0.6
		c-0.3,0.4-0.5,0.9-0.5,1.5c0-1.2-0.8-2.1-1.8-2.1c0.5,0,0.9-0.2,1.3-0.6c0.3-0.4,0.5-0.9,0.5-1.5c0,0.6,0.2,1.1,0.5,1.5
		C92.7,99.9,93.1,100.1,93.6,100.1L93.6,100.1z M32.4,50.9c-0.5,0-0.9,0.2-1.3,0.6c-0.3,0.4-0.5,0.9-0.5,1.5c0-1.2-0.8-2.1-1.8-2.1
		c0.5,0,0.9-0.2,1.3-0.6c0.3-0.4,0.5-0.9,0.5-1.5c0,0.6,0.2,1.1,0.5,1.5C31.5,50.7,31.9,50.9,32.4,50.9z M87.5,58.8
		c-0.4,0-0.8,0.2-1,0.5C86.2,59.6,86,60,86,60.5c0-0.9-0.6-1.7-1.4-1.7c0.4,0,0.7-0.2,1-0.5s0.4-0.7,0.4-1.2c0,0.5,0.2,0.9,0.4,1.2
		C86.7,58.6,87.1,58.8,87.5,58.8z M48.4,82.9c-0.7,0.1-1.5-1.9-1.9-4.5s-0.1-4.7,0.6-4.8c0.7-0.1,1.5,1.9,1.9,4.5
		C49.4,80.6,49.1,82.8,48.4,82.9z M49,87c-0.3,0-0.6-0.6-0.7-1.4c-0.1-0.8,0-1.5,0.3-1.5s0.6,0.6,0.7,1.4S49.3,87,49,87z M58.6,62.9
		c0,0.7-1.7,1.2-3.8,1.2S51,63.5,51,62.9c0-0.7,1.7-1.2,3.8-1.2C56.9,61.7,58.6,62.2,58.6,62.9z"/>
	<ellipse class="st1" cx="60.9" cy="62.9" rx="1.2" ry="0.5"/>
	<path class="st1" d="M100.7,38c-0.2,0.7-1.8,0.8-3.5,0.8c-0.8,0-1.5,0-2.2,0.1c-0.6,0-1,0-1.3-0.3c-0.2-0.3-0.1-0.8,0.6-1.3
		c0.6-0.5,1.7-0.9,2.8-0.9c1.1,0,2.1,0.2,2.7,0.5C100.5,37.3,100.8,37.7,100.7,38z M103.7,39.2c-0.2,0.3-0.7,0.2-1.2,0
		c-0.5-0.3-0.9-0.6-0.8-0.9c0.1-0.3,0.7-0.3,1.3-0.1C103.5,38.5,103.8,39,103.7,39.2L103.7,39.2z"/>
</g>
<g>
	<path class="st18" d="M119.9,58.1h7.2v2.4h-4.5v4.4h3.6v2.4h-3.6v5.1h4.5v2.4h-7.2V58.1z"/>
	<path class="st18" d="M128.1,65.2h5.2v2.4h-5.2V65.2z"/>
	<path class="st18" d="M135.8,73.9c-0.7-0.7-1-1.7-1-3v-9c0-1.3,0.3-2.3,1-3s1.6-1.1,2.9-1.1s2.2,0.4,2.9,1.1s1,1.7,1,3v1.8H140
		v-1.9c0-1-0.4-1.5-1.3-1.5s-1.3,0.5-1.3,1.5v9.3c0,1,0.4,1.5,1.3,1.5s1.3-0.5,1.3-1.5v-2.6h2.5v2.4c0,1.3-0.3,2.3-1,3
		s-1.6,1.1-2.9,1.1S136.4,74.6,135.8,73.9z"/>
	<path class="st18" d="M145,73.9c-0.7-0.7-1-1.8-1-3.1V62c0-1.3,0.3-2.4,1-3.1c0.7-0.7,1.7-1.1,3-1.1s2.3,0.4,3,1.1
		c0.7,0.7,1,1.8,1,3.1v8.8c0,1.3-0.3,2.4-1,3.1s-1.7,1.1-3,1.1C146.6,75,145.6,74.6,145,73.9z M149.3,71v-9.1c0-1.1-0.5-1.6-1.4-1.6
		s-1.4,0.5-1.4,1.6V71c0,1.1,0.5,1.6,1.4,1.6S149.3,72.1,149.3,71z"/>
	<path class="st18" d="M153.7,58.1h3.7l1.7,11.9l0,0l1.7-11.9h3.7v16.7H162V62.1l0,0l-1.9,12.6h-2.2L156,62.1l0,0v12.6h-2.3V58.1z"
		/>
	<path class="st18" d="M166.5,58.1h3.7l1.7,11.9l0,0l1.7-11.9h3.7v16.7h-2.5V62.1l0,0l-1.9,12.6h-2.2l-1.9-12.6l0,0v12.6h-2.3V58.1z
		"/>
	<path class="st18" d="M179.3,58.1h7.2v2.4H182v4.4h3.6v2.4H182v5.1h4.5v2.4h-7.2V58.1z"/>
	<path class="st18" d="M188,58.1h3.9c1.4,0,2.3,0.3,3,0.9c0.6,0.6,0.9,1.6,0.9,2.9v1c0,1.7-0.6,2.8-1.7,3.3l0,0
		c0.6,0.2,1.1,0.6,1.3,1.2c0.3,0.6,0.4,1.4,0.4,2.4v2.9c0,0.5,0,0.9,0,1.2c0,0.3,0.1,0.6,0.2,0.9h-2.7c-0.1-0.3-0.2-0.5-0.2-0.8
		c0-0.2,0-0.7,0-1.3v-3.1c0-0.8-0.1-1.3-0.4-1.6c-0.2-0.3-0.7-0.5-1.3-0.5h-0.9v7.2H188V58.1z M191.6,65.2c0.5,0,0.9-0.1,1.2-0.4
		s0.4-0.7,0.4-1.4v-1.3c0-0.6-0.1-1-0.3-1.3s-0.6-0.4-1-0.4h-1.2v4.8H191.6z"/>
	<path class="st18" d="M198.4,73.9c-0.7-0.7-1-1.7-1-3v-9c0-1.3,0.3-2.3,1-3s1.6-1.1,2.9-1.1s2.2,0.4,2.9,1.1c0.7,0.7,1,1.7,1,3v1.8
		h-2.5v-1.9c0-1-0.4-1.5-1.3-1.5s-1.3,0.5-1.3,1.5v9.3c0,1,0.4,1.5,1.3,1.5s1.3-0.5,1.3-1.5v-2.6h2.5v2.4c0,1.3-0.3,2.3-1,3
		s-1.6,1.1-2.9,1.1S199.1,74.6,198.4,73.9z"/>
	<path class="st18" d="M206.7,58.1h7.2v2.4h-4.5v4.4h3.6v2.4h-3.6v5.1h4.5v2.4h-7.2V58.1z"/>
</g>
<g>
	<path class="st19" d="M124.3,97.7l-0.4-1.4c-0.1-0.2-0.3-0.9-0.7-2.1l-2.1-6l-1.9-5.4c0.8,0,1.4,0,1.9,0c0.3,0,0.8,0,1.6,0L123,84
		c0.1,0.2,0.2,0.6,0.3,1l2.7,8c0.2,0.5,0.4,1.2,0.6,2l0.6-1.3c0.1-0.3,0.4-1,0.9-1.9l3.4-7.2c0.1-0.2,0.2-0.4,0.3-0.7
		c0.1-0.2,0.3-0.6,0.5-1.2c0.8,0,1.4,0,1.8,0c0.2,0,0.8,0,1.7,0l-0.9,1.7l-6,11.8l-0.6,1.4c-0.9,0-1.6,0-1.9,0
		C126,97.6,125.3,97.6,124.3,97.7z"/>
	<path class="st19" d="M134.5,102.7c-0.1-1.1-0.2-1.9-0.3-2.4c0.7,0.3,1.4,0.5,2,0.5c0.2,0,0.4,0,0.6-0.1c0.2,0,0.4-0.1,0.5-0.2
		s0.2-0.1,0.3-0.2s0.3-0.3,0.5-0.6s0.4-0.6,0.5-0.9c0.1-0.2,0.2-0.5,0.4-0.9l-2.3-6.6l-1.7-4.7c0.8,0,1.3,0,1.7,0s0.9,0,1.5,0
		c0.2,0.6,0.3,1.1,0.4,1.6l1,3.4c0.3,1.1,0.5,1.9,0.7,2.4c0.1,0.3,0.2,0.8,0.3,1.4c0.2-0.7,0.4-1.2,0.6-1.6c0.3-0.8,0.7-1.8,1.2-3
		l1.1-2.6c0.2-0.5,0.4-1,0.6-1.5c0.7,0,1.2,0,1.5,0s0.8,0,1.6,0l-4.2,9.4l-1.8,4.2c-0.3,0.5-0.5,1-0.7,1.3s-0.4,0.5-0.6,0.7
		c-0.2,0.2-0.5,0.3-0.7,0.4c-0.3,0.1-0.7,0.3-1,0.3c-0.4,0.1-0.8,0.1-1.3,0.1c-0.2,0-0.6,0-1-0.1S134.9,102.8,134.5,102.7z"/>
	<path class="st19" d="M147.9,97.7c0.2-1.7,0.3-3.5,0.4-5.6s0.2-3.9,0.2-5.5c0.7,0,1.2,0,1.6,0c0.5,0,1,0,1.5,0l-0.1,1.9
		c0.2-0.3,0.4-0.6,0.6-0.8s0.4-0.4,0.7-0.6s0.5-0.3,0.9-0.4c0.3-0.1,0.6-0.2,1-0.3c0.4-0.1,0.8-0.1,1.2-0.1c0.6,0,1.3,0.1,1.9,0.2
		c0.6,0.2,1.1,0.4,1.4,0.8c0.4,0.4,0.6,0.7,0.7,1.2c0.1,0.4,0.2,0.9,0.2,1.3c0,0.2,0,0.5,0,0.9l-0.2,4.8c0,0.7,0,1.4-0.1,2.1
		c-0.6,0-1.1,0-1.5,0c-0.6,0-1.1,0-1.7,0c0.1-0.6,0.1-1.7,0.2-3.3s0.1-2.6,0.1-3.1c0-0.6-0.1-1-0.3-1.4c-0.2-0.3-0.5-0.6-0.8-0.8
		c-0.4-0.2-0.8-0.3-1.2-0.3s-0.8,0.1-1.2,0.3c-0.4,0.2-0.7,0.4-1,0.7c-0.3,0.3-0.5,0.7-0.7,1.2s-0.3,1.4-0.4,2.5
		c-0.1,1-0.1,2.4-0.2,4.2c-0.6,0-1.1,0-1.5,0C149.1,97.6,148.5,97.6,147.9,97.7z"/>
	<path class="st19" d="M168.2,86.3c0.8,0,1.6,0.1,2.4,0.4c0.8,0.3,1.4,0.6,2,1.1c0.5,0.5,0.9,1.1,1.2,1.8c0.3,0.7,0.4,1.5,0.4,2.2
		c0,0.8-0.1,1.6-0.4,2.4c-0.3,0.8-0.7,1.4-1.2,2s-1.2,1-2,1.3s-1.7,0.4-2.6,0.4c-0.8,0-1.6-0.1-2.4-0.4c-0.8-0.3-1.4-0.6-2-1.1
		c-0.5-0.5-0.9-1.1-1.2-1.8c-0.3-0.7-0.4-1.5-0.4-2.3s0.1-1.6,0.4-2.3s0.7-1.4,1.2-1.9c0.5-0.6,1.2-1,2.1-1.3
		C166.5,86.4,167.3,86.3,168.2,86.3z M168.2,88.5c-0.6,0-1.2,0.2-1.7,0.5s-0.9,0.8-1.1,1.4s-0.4,1.3-0.4,2c0,0.6,0.1,1.2,0.3,1.7
		s0.5,0.9,1,1.2c0.5,0.3,1,0.5,1.6,0.5s1.2-0.2,1.7-0.5s0.8-0.8,1.1-1.4c0.2-0.6,0.4-1.3,0.4-2c0-0.6-0.1-1.2-0.3-1.6
		c-0.2-0.5-0.5-0.9-1-1.2C169.4,88.7,168.9,88.5,168.2,88.5z"/>
	<path class="st19" d="M176.1,97.7l0.3-5.2l0.1-3c0-0.6,0-1.2,0-1.9c0-0.1,0-0.5,0-1c0.7,0,1.2,0,1.5,0c0.4,0,0.9,0,1.5,0l-0.1,1.5
		c0.3-0.4,0.5-0.7,0.7-0.9c0.2-0.2,0.4-0.4,0.7-0.5c0.2-0.1,0.5-0.2,0.8-0.3c0.3-0.1,0.6-0.1,0.9-0.1c0.3,0,0.6,0,0.9,0.1
		c0,0.7,0,1.5,0.1,2.6c-0.4-0.1-0.8-0.2-1.2-0.2s-0.8,0.1-1.1,0.2s-0.6,0.3-0.9,0.6c-0.3,0.3-0.5,0.6-0.6,1
		c-0.1,0.3-0.2,0.7-0.3,1.2c-0.1,0.4-0.1,1-0.1,1.9s-0.1,1.8-0.1,2.7c0,0.3,0,0.8,0,1.3c-0.6,0-1.1,0-1.5,0
		C177.2,97.6,176.7,97.6,176.1,97.7z"/>
	<path class="st19" d="M185.6,89c0.1-0.5,0.2-0.9,0.2-1.1s0.1-0.5,0.1-1c1-0.2,1.9-0.4,2.6-0.5s1.5-0.1,2.2-0.1
		c0.8,0,1.5,0.1,2.2,0.3c0.7,0.2,1.2,0.5,1.6,0.9s0.6,1,0.6,1.8c0,0.4-0.1,1.5-0.2,3.2c-0.1,1.7-0.2,3.5-0.2,5.3c-0.6,0-1.1,0-1.5,0
		s-1,0-1.6,0c0.1-0.9,0.2-1.9,0.2-3.1l0.1-2.7c-0.3,0.2-0.5,0.3-0.6,0.4s-0.3,0.1-0.5,0.2s-0.5,0.2-1,0.3c-0.5,0.1-0.8,0.2-1.1,0.3
		s-0.5,0.2-0.7,0.3c-0.2,0.1-0.4,0.3-0.6,0.4c-0.2,0.1-0.3,0.3-0.3,0.5c-0.1,0.2-0.1,0.3-0.1,0.5c0,0.3,0.1,0.6,0.3,0.8
		c0.2,0.2,0.4,0.4,0.7,0.5s0.6,0.1,1,0.1c0.2,0,0.5,0,0.7-0.1c0.3,0,0.6-0.1,1-0.3c-0.2,0.4-0.3,1-0.5,1.9c-0.5,0.1-0.9,0.1-1.2,0.2
		c-0.3,0-0.6,0-0.9,0c-0.9,0-1.7-0.1-2.3-0.4c-0.6-0.2-1-0.6-1.3-1.2c-0.3-0.5-0.4-1.1-0.4-1.6c0-0.3,0.1-0.6,0.2-0.9
		s0.3-0.6,0.5-0.8c0.2-0.3,0.5-0.5,0.8-0.7s0.8-0.5,1.5-0.7c0.6-0.2,1.5-0.4,2.5-0.7c0.3-0.1,0.6-0.1,0.9-0.2
		c0.3-0.1,0.5-0.2,0.7-0.2s0.3-0.2,0.5-0.3c0.1-0.1,0.2-0.3,0.3-0.4s0.1-0.3,0.1-0.4c0-0.3-0.1-0.5-0.3-0.7s-0.4-0.3-0.7-0.4
		s-0.6-0.1-1-0.1C188.7,88,187.2,88.3,185.6,89z"/>
</g>
</svg>
