<?xml version="1.0" encoding="utf-8"?>
<!-- Generator: Adobe Illustrator 27.3.1, SVG Export Plug-In . SVG Version: 6.00 Build 0)  -->
<svg version="1.1" id="Camada_1" xmlns="http://www.w3.org/2000/svg" xmlns:xlink="http://www.w3.org/1999/xlink" x="0px" y="0px"
	 viewBox="0 0 400 400" style="enable-background:new 0 0 400 400;" xml:space="preserve">
<style type="text/css">
	.st0{fill:#0F5058;}
	.st1{fill:#72C2EA;}
	.st2{fill:#4CA5C9;}
	.st3{fill:#DDDBCC;}
	.st4{fill:#1D9AAA;}
	.st5{fill:#05383E;}
	.st6{fill:#010202;}
</style>
<g>
	<path class="st0" d="M333,190.9l-1.1,10.2l-3.3,29.7H280l1.2-21.5l0.6-10.9c-6.4,2.6-14.1,2-20.1-2.5l-0.7,11.5l-1.3,23.4h-52.5
		v-39.9h-20.2v39.9h-52.5l-1.3-22.1l-0.6-10.8c-6.4,3.1-14.2,2.8-20.3-1.3l0.7,11.7l1.3,22.5H65.8l-3.3-29.7l-1.1-10.2H41.1
		l1.1,10.2c11.4,102.3,9.9,89,14.6,131.7c1.5,13.7,13.1,24,26.8,24h227.1c13.8,0,25.3-10.3,26.8-24l14.6-131.7l1.1-10.2L333,190.9z
		 M68.1,251.1h47.4l1.9,34H71.9L68.1,251.1z M83.6,336.6c-3.4,0-6.3-2.6-6.7-6l-2.8-25.3h44.5l1.8,31.3H83.6z M187.1,336.6h-46.4
		l-1.8-31.3h48.2V336.6z M187.1,285h-49.4l-1.9-34h51.3V285z M253.7,336.6h-46.4v-31.3h48.2L253.7,336.6z M256.7,285h-49.4v-34h51.3
		L256.7,285z M317.4,330.6c-0.4,3.4-3.3,6-6.7,6H274l1.8-31.3h44.4L317.4,330.6z M322.5,285h-45.6l1.9-34h47.4L322.5,285z"/>
	<path class="st1" d="M106.7,190.9H39.5c-6,0-10.9-4.9-10.9-10.9c0-6,4.9-10.9,10.9-10.9c0,0,0,0,0,0h66.4
		C102,175.9,102.2,184.4,106.7,190.9L106.7,190.9z M257,190.9H140.8c4.4-6.6,4.7-15.1,0.7-21.8h114.7
		C252.3,175.9,252.5,184.4,257,190.9L257,190.9z M371.4,180c0,6-4.9,10.9-10.9,10.9H291c4.4-6.6,4.7-15.1,0.7-21.8h68.7
		C366.6,169.1,371.4,174,371.4,180L371.4,180z"/>
	<path class="st2" d="M106.7,190.9H95.1c-2.8-7-2.9-14.7-0.4-21.8h11.2C102,175.9,102.2,184.4,106.7,190.9z M152.3,190.9h-11.5
		c4.4-6.6,4.7-15.1,0.7-21.8h11.2C155.2,176.2,155.1,184,152.3,190.9z"/>
	<path class="st3" d="M140.8,190.9c-2,3-4.8,5.4-8,7c-6.4,3.1-14.2,2.8-20.3-1.3c-2.3-1.5-4.2-3.4-5.7-5.7
		c-4.4-6.6-4.7-15.1-0.7-21.8c3.5-6,10-10.1,17.4-10.2c-5.6,12.4-3.9,8.5-7.9,17.5c-1.7,3.7,0,8,3.6,9.7c0,0,0,0,0,0
		c4.4,1.8,8.3-0.5,9.7-3.7c0,0,8.4-18.6,8.4-18.6c1.7,1.5,3.2,3.3,4.4,5.3C145.4,175.9,145.2,184.4,140.8,190.9L140.8,190.9z"/>
	<path class="st4" d="M61.4,190.9l1.1,10.2H42.2l-1.1-10.2L61.4,190.9z M132.7,197.9l0.6,10.8c-6.6,2.2-13.8,2.1-20.3-0.4l-0.7-11.7
		C118.5,200.7,126.3,201,132.7,197.9z M187.1,190.9h20.2v10.2h-20.2V190.9z M281.9,198.4l-0.6,10.9c-6.8,1.7-13.9,1-20.2-2l0.7-11.5
		C267.8,200.4,275.5,201.1,281.9,198.4L281.9,198.4z M353.3,190.9l-1.1,10.2h-20.3l1.1-10.2L353.3,190.9z"/>
	<path class="st2" d="M257,190.9h-11.5c-2.8-7-2.9-14.7-0.4-21.8h11.2C252.3,175.9,252.5,184.4,257,190.9z M302.6,190.9H291
		c4.4-6.6,4.7-15.1,0.7-21.8H303C305.5,176.2,305.4,184,302.6,190.9z"/>
	<path class="st3" d="M291,190.9c-2.3,3.3-5.4,5.9-9.1,7.5c-6.4,2.6-14.1,2-20.1-2.5v0c-1.9-1.4-3.5-3.1-4.8-5
		c-4.4-6.6-4.7-15.1-0.7-21.8c1-1.7,2.2-3.2,3.6-4.6c1.3,3.1,6.2,14.7,7.5,17.7c1.6,3.7,5.9,5.5,9.6,3.9c3.7-1.6,5.5-5.9,3.9-9.6
		c0,0,0,0,0,0l-7.4-17.7c6.6-0.4,14.4,3.1,18.5,10.2C295.7,175.9,295.5,184.4,291,190.9z"/>
	<path class="st4" d="M186.9,53.5l-49.8,110.4c0,0-8.4,18.6-8.4,18.6c-1.4,3.2-5.2,5.5-9.7,3.7c-3.7-1.7-5.3-6-3.7-9.7c0,0,0,0,0,0
		c4.1-9,2.3-5.1,7.9-17.5l50.3-111.4c1.7-3.7,6-5.3,9.7-3.7C187,45.5,188.6,49.8,186.9,53.5z M276.8,186.2c-3.7,1.6-8-0.2-9.6-3.9
		c-1.2-3-6.2-14.6-7.5-17.7L213,53.3c-1.6-3.7,0.2-8,3.9-9.6c3.7-1.6,8,0.2,9.6,3.9c0,0,0,0,0,0l46.8,111.2l7.4,17.7
		C282.3,180.3,280.6,184.6,276.8,186.2C276.8,186.2,276.8,186.2,276.8,186.2L276.8,186.2z"/>
	<path class="st5" d="M179.5,356.8c0,1.9,1.6,3.5,3.5,3.5c1.9,0,3.5-1.6,3.5-3.5c0-1.9-1.6-3.5-3.5-3.5
		C181.1,353.3,179.5,354.9,179.5,356.8z M117.4,288.5c2,0,3.6-1.7,3.5-3.7l-1.9-34c-0.1-1.9-1.6-3.3-3.5-3.3H68.1
		c-1.9,0-3.5,1.6-3.5,3.5c0,0.1,0,0.3,0,0.4l3.8,34c0.2,1.8,1.7,3.1,3.5,3.1L117.4,288.5z M112.2,254.6l1.5,26.9H75l-3-26.9H112.2z
		 M73.4,331c0.6,5.2,5,9.1,10.2,9.1h36.7c1.9,0,3.6-1.7,3.5-3.7l-1.8-31.3c-0.1-1.9-1.6-3.3-3.5-3.3H74.1c-1.9,0-3.5,1.6-3.5,3.5
		c0,0.1,0,0.3,0,0.4L73.4,331z M115.3,308.8l1.4,24.3h-33c-1.7,0-3-1.2-3.2-2.9L78,308.8H115.3z M190.6,336.6v-31.3
		c0-1.9-1.6-3.5-3.5-3.5h-48.2c-1.9,0-3.6,1.6-3.5,3.7l1.8,31.3c0.1,1.9,1.6,3.3,3.5,3.3h46.4C189,340.1,190.6,338.5,190.6,336.6z
		 M183.6,333.1H144l-1.4-24.3h41V333.1z M190.6,251.1c0-1.9-1.6-3.5-3.5-3.5h-51.3c-1.9,0-3.5,1.5-3.5,3.5c0,0.1,0,0.2,0,0.2l1.9,34
		c0.1,1.9,1.6,3.3,3.5,3.3h49.4c1.9,0,3.5-1.6,3.5-3.5L190.6,251.1z M183.6,281.5H141l-1.5-26.9h44.1V281.5z M203.8,336.6
		c0,2,1.6,3.5,3.5,3.5h46.4c1.9,0,3.4-1.5,3.5-3.3l1.8-31.3c0.1-1.9-1.4-3.6-3.3-3.7c-0.1,0-0.1,0-0.2,0h-48.2
		c-1.9,0-3.5,1.6-3.5,3.5c0,0,0,0,0,0V336.6z M210.8,308.8h41l-1.4,24.3h-39.6L210.8,308.8z M207.3,288.5h49.4
		c1.9,0,3.4-1.4,3.5-3.3l1.9-34c0.1-1.9-1.4-3.6-3.3-3.7c-0.1,0-0.1,0-0.2,0h-51.3c-1.9,0-3.5,1.6-3.5,3.5c0,0,0,0,0,0v34
		C203.8,287,205.4,288.5,207.3,288.5C207.3,288.5,207.3,288.5,207.3,288.5L207.3,288.5z M210.8,254.6h44.1l-1.5,26.9h-42.5
		L210.8,254.6z M272.3,305.1l-1.8,31.3c-0.1,1.9,1.4,3.6,3.3,3.7c0.1,0,0.1,0,0.2,0h36.7c5.2,0,9.6-3.9,10.2-9.1l2.8-25.3
		c0.2-1.9-1.2-3.7-3.1-3.9c-0.1,0-0.3,0-0.4,0h-44.5C273.9,301.8,272.4,303.2,272.3,305.1z M279.1,308.8h37.2l-2.4,21.4
		c-0.2,1.6-1.6,2.9-3.2,2.9h-33L279.1,308.8z M322.5,288.5c1.8,0,3.3-1.3,3.5-3.1l3.8-34c0.2-1.9-1.2-3.7-3.1-3.9
		c-0.1,0-0.3,0-0.4,0h-47.4c-1.9,0-3.4,1.4-3.5,3.3l-1.9,34c-0.1,1.9,1.4,3.6,3.3,3.7c0.1,0,0.1,0,0.2,0H322.5z M282.2,254.6h40.2
		l-3,26.9h-38.7L282.2,254.6z"/>
	<path class="st5" d="M37.9,194.3l15.4,138.9c1.7,15.5,14.7,27.1,30.3,27.1H169c1.9,0,3.5-1.6,3.5-3.5c0-1.9-1.6-3.5-3.5-3.5
		l-85.4,0c-12,0-22-9-23.3-20.9L45,194.4h13.3l4.1,36.8c0.2,1.8,1.7,3.1,3.5,3.1h48.5c1.9,0,3.5-1.6,3.5-3.5c0-0.1,0-0.1,0-0.2
		l-1.6-28.3c4.3,1.4,9,1.5,13.3,0.5l1.6,28.2c0.1,1.9,1.6,3.3,3.5,3.3h52.5c1.9,0,3.5-1.6,3.5-3.5v-36.4h13.2v36.4
		c0,2,1.6,3.5,3.5,3.5h52.5c1.9,0,3.4-1.5,3.5-3.3l1.7-29.3c4.2,1.7,8.9,2.1,13.2,1.4l-1.6,27.5c-0.1,1.9,1.4,3.6,3.3,3.7
		c0.1,0,0.1,0,0.2,0h48.5c1.8,0,3.3-1.3,3.5-3.1l4.1-36.8h13.3c-1.1,10-14.5,130.9-15.3,138c-1.3,11.9-11.4,20.9-23.3,20.9H197.1
		c-1.9,0-3.5,1.6-3.5,3.5c0,1.9,1.6,3.5,3.5,3.5h113.7c15.6,0,28.6-11.7,30.3-27.1l15.4-138.8h4.1c7.9,0,14.4-6.5,14.4-14.4
		c0-8-6.5-14.4-14.4-14.4h-25.4c-1.9,0-3.5,1.6-3.5,3.5c0,1.9,1.6,3.5,3.5,3.5h25.4c4.1,0,7.4,3.3,7.4,7.4c0,4.1-3.3,7.4-7.4,7.4
		h-63.8c1.7-4.8,1.7-10.1,0.4-14.8h9.9c1.9,0,3.5-1.6,3.5-3.5c0-1.9-1.6-3.5-3.5-3.5h-13.3c-4.2-5.9-11-9.8-18.1-10.2L229.7,46.3
		c-2.3-5.5-8.7-8.1-14.2-5.8c-5.5,2.3-8.1,8.7-5.8,14.2l46,109.2c-0.5,0.6-0.9,1.2-1.4,1.8H143.4c-0.6-0.9-1.3-1.7-2.1-2.5
		l48.8-108.1c2.5-5.4,0.1-11.8-5.4-14.3c-5.5-2.5-11.9,0-14.3,5.4l-30.6,67.8c-0.8,1.8,0,3.8,1.7,4.6c0,0,0,0,0,0
		c1.7,0.8,3.9,0,4.6-1.8l30.6-67.8c0.8-1.9,3.1-2.8,5-1.9c1.9,0.9,2.8,3.1,1.9,5c0,0,0,0,0,0c-58.8,130.3-58.2,128.9-58.2,128.9
		c-1.1,2.3-3.4,2.8-5.2,1.9c-1.7-0.8-2.5-2.8-1.9-4.5c0.2-0.6,15.9-35.3,16.2-35.9c0.8-1.8,0-3.8-1.8-4.6c-1.7-0.8-3.9,0.1-4.6,1.8
		l-7.3,16.1c-6.8,0.8-13,4.5-17,10.1H39.5c-8,0-14.4,6.4-14.4,14.4C25,187.4,30.7,193.6,37.9,194.3z M69,227.3l-3.7-32.9h39.6
		c1.2,1.5,2.5,2.8,4.1,4l1.6,28.9H69z M183.6,227.3h-45.6l-1.6-27.4c2.3-1.5,4.4-3.3,6.2-5.5h41V227.3z M210.8,227.3v-32.9h44.4
		c0.9,1.1,1.9,2.2,3,3.1l-1.7,29.8H210.8z M329.1,194.4l-3.7,32.9h-41.6l1.5-26.6c2.9-1.5,5.5-3.7,7.5-6.2H329.1z M291,179.2
		c0.1,7.2-4.2,13.4-10.5,16c0,0,0,0,0,0c-14.5,6.1-29.1-9.5-21.6-23.7l5.1,12.1c2.4,5.6,8.8,8.1,14.2,5.8l0,0l0,0
		c5.5-2.3,8.1-8.5,5.8-14.1l-5.1-12.2C285.9,165.2,290.9,171.6,291,179.2L291,179.2z M218.2,47c1.9-0.8,4.2,0.1,5,2c0,0,0,0,0,0
		l54.3,128.9c0.8,1.9-0.1,4.2-2,5c0,0,0,0,0,0c-1.9,0.8-4.1-0.1-5-2c-9.6-22.8,5.2,12.4-54.3-128.9C215.4,50,216.3,47.8,218.2,47
		L218.2,47z M250.9,172.6c-1.4,4.9-1.3,10,0.4,14.8H146.4c1.7-4.8,1.7-10.1,0.4-14.8H250.9z M117.3,163.6l-0.1,0.2c-2,4.3-2,4.3-4,9
		l-1,2.2c-2.4,5.2-0.3,11.4,5,14.1c5.5,2.7,12.1,0.5,14.7-5.2l0,0c0.2-0.5,5.9-13.2,6.1-13.6c3.7,5.8,3.5,13.2-0.2,18.7l0,0
		c-5.3,7.8-15.9,9.7-23.5,4.7c-7.3-4.8-9.6-14.2-5.9-21.7C110.2,168.2,113.4,165.2,117.3,163.6L117.3,163.6z M39.5,172.6h61.2
		c-1.4,4.9-1.3,10,0.4,14.8H39.5c-4.1,0-7.4-3.3-7.4-7.4C32.1,175.9,35.4,172.6,39.5,172.6C39.5,172.6,39.5,172.6,39.5,172.6
		L39.5,172.6z"/>
	<circle class="st6" cx="321.1" cy="169.1" r="3.5"/>
	<path class="st6" d="M135.8,131.3c1.8,0.8,3.9,0,4.6-1.7c0.8-1.8,0-3.9-1.8-4.6c-1.7-0.8-3.9,0-4.6,1.8
		C133.2,128.4,134,130.5,135.8,131.3L135.8,131.3z"/>
</g>
</svg>
