<?xml version="1.0" encoding="utf-8"?>
<!-- Generator: Adobe Illustrator 27.3.1, SVG Export Plug-In . SVG Version: 6.00 Build 0)  -->
<svg version="1.1" id="Camada_1" xmlns="http://www.w3.org/2000/svg" xmlns:xlink="http://www.w3.org/1999/xlink" x="0px" y="0px"
	 viewBox="0 0 400 400" style="enable-background:new 0 0 400 400;" xml:space="preserve">
<style type="text/css">
	.st0{fill:#F5F1E3;}
	.st1{opacity:0.4;fill:#1D9AAA;enable-background:new    ;}
	.st2{fill:#0F5058;}
	.st3{fill:#010202;}
</style>
<g>
	<path class="st0" d="M272.8,87.4c0,40.2-32.6,89.5-72.8,89.5c-40.2,0-72.8-49.3-72.8-89.5c0-40.2,32.6-75.1,72.8-75.1
		C240.2,12.3,272.8,47.3,272.8,87.4z"/>
	<path class="st1" d="M272.8,87.4c0,40.2-32.6,89.5-72.7,89.5c-22.2,0-42.1-15.1-55.5-35.4c56.6-6.3,100.6-54,101.2-112.1
		C262.2,43.4,272.8,64.6,272.8,87.4L272.8,87.4z"/>
	<path class="st2" d="M269.2,387.7c26.5,0,48.6-21.2,48.7-47.8l0-0.5c0-65-52.8-121.6-117.8-121.6c-65.1,0-117.9,56.6-117.9,121.6
		l0,0.5c0.1,26.5,22.2,47.8,48.7,47.8H269.2z"/>
	<path class="st1" d="M317.9,339.5v0.5c-0.1,26.5-22.1,47.7-48.7,47.7H130.9c-26,0-47.6-20.3-48.7-46c21,15.9,47.1,25.3,75.5,25.3
		c65.3,0,118.9-50.1,124.5-113.9C304.2,275.5,317.9,306.3,317.9,339.5z"/>
	<path class="st3" d="M200,181.6c42.9,0,77.4-51.5,77.4-94.2c0-43.3-35.5-79.8-77.4-79.8c-42,0-77.5,36.5-77.5,79.8
		C122.5,130.1,157.1,181.6,200,181.6L200,181.6z M200,17c36.9,0,68.1,32.2,68.1,70.4c0,38.2-31.4,84.8-68.1,84.8
		c-36.7,0-68.1-46.6-68.1-84.8C131.9,49.2,163.1,17,200,17L200,17z M321.9,326.8c-0.2-2.6-2.5-4.5-5.1-4.2c-2.6,0.2-4.5,2.5-4.2,5.1
		c0.4,4.1,0.6,8.1,0.6,11.8v0.5c-0.1,23.7-19.8,43.1-44,43.1H130.9c-24.2,0-43.9-19.3-44-43.1v-0.5c0-63.4,51.8-116.9,113.2-116.9
		c41.7,0,81.3,25.4,100.8,64.8c1.1,2.3,4,3.3,6.3,2.1c0,0,0,0,0,0c2.3-1.1,3.3-4,2.1-6.3c0,0,0,0,0,0c-21.1-42.5-63.9-70-109.2-70
		c-66.5,0-122.6,57.8-122.6,126.3v0.5c0.1,28.9,24.1,52.4,53.4,52.4h138.3c29.3,0,53.3-23.5,53.4-52.4v-0.5
		C322.5,335.5,322.3,331.2,321.9,326.8L321.9,326.8z"/>
</g>
</svg>
